<svg id="visual" viewBox="0 0 900 600" width="900" height="600" xmlns="http://www.w3.org/2000/svg" xmlns:xlink="http://www.w3.org/1999/xlink" version="1.1"><rect x="0" y="0" width="900" height="600" fill="#002233"></rect><path d="M0 447L21.5 437.8C43 428.7 86 410.3 128.8 402.2C171.7 394 214.3 396 257.2 404.8C300 413.7 343 429.3 385.8 449.5C428.7 469.7 471.3 494.3 514.2 497.7C557 501 600 483 642.8 462.5C685.7 442 728.3 419 771.2 421.7C814 424.3 857 452.7 878.5 466.8L900 481L900 601L878.5 601C857 601 814 601 771.2 601C728.3 601 685.7 601 642.8 601C600 601 557 601 514.2 601C471.3 601 428.7 601 385.8 601C343 601 300 601 257.2 601C214.3 601 171.7 601 128.8 601C86 601 43 601 21.5 601L0 601Z" fill="#0066FF" stroke-linecap="round" stroke-linejoin="miter"></path></svg>